<svg xmlns="http://www.w3.org/2000/svg" xmlns:xlink="http://www.w3.org/1999/xlink" width="260" zoomAndPan="magnify" viewBox="0 0 194.87999 44.999999" height="60" preserveAspectRatio="xMidYMid meet" version="1.0"><defs><g/><clipPath id="db33f893b7"><path d="M 61 22 L 68.085938 22 L 68.085938 25 L 61 25 Z M 61 22 " clip-rule="nonzero"/></clipPath><clipPath id="ed0a7802df"><path d="M 25.363281 22 L 32 22 L 32 24 L 25.363281 24 Z M 25.363281 22 " clip-rule="nonzero"/></clipPath><clipPath id="35e074fb46"><path d="M 41 0.015625 L 44 0.015625 L 44 7 L 41 7 Z M 41 0.015625 " clip-rule="nonzero"/></clipPath><clipPath id="27ec85827b"><path d="M 50 0.015625 L 53 0.015625 L 53 7 L 50 7 Z M 50 0.015625 " clip-rule="nonzero"/></clipPath><clipPath id="4887cac802"><path d="M 33.363281 8.277344 L 60 8.277344 L 60 39 L 33.363281 39 Z M 33.363281 8.277344 " clip-rule="nonzero"/></clipPath><clipPath id="87da8e55a3"><path d="M 42 41 L 51 41 L 51 44.984375 L 42 44.984375 Z M 42 41 " clip-rule="nonzero"/></clipPath><clipPath id="16f89eba8b"><path d="M 38 12.472656 L 56 12.472656 L 56 31.957031 L 38 31.957031 Z M 38 12.472656 " clip-rule="nonzero"/></clipPath><clipPath id="2250cafcbc"><path d="M 38 12.472656 L 48 12.472656 L 48 31.957031 L 38 31.957031 Z M 38 12.472656 " clip-rule="nonzero"/></clipPath><clipPath id="66a47c3b3a"><path d="M 46 12.472656 L 56 12.472656 L 56 31.957031 L 46 31.957031 Z M 46 12.472656 " clip-rule="nonzero"/></clipPath></defs><g clip-path="url(#db33f893b7)"><path fill="#3c3c3b" d="M 67.617188 24.261719 L 67.566406 24.261719 L 62.1875 23.566406 C 62.078125 23.554688 61.988281 23.503906 61.921875 23.414062 C 61.855469 23.328125 61.828125 23.226562 61.84375 23.117188 C 61.855469 23.007812 61.90625 22.917969 61.996094 22.851562 C 62.082031 22.78125 62.179688 22.757812 62.289062 22.769531 L 67.664062 23.480469 C 67.773438 23.488281 67.863281 23.53125 67.9375 23.613281 C 68.007812 23.699219 68.042969 23.792969 68.035156 23.90625 C 68.027344 24.015625 67.980469 24.105469 67.898438 24.179688 C 67.816406 24.25 67.722656 24.285156 67.613281 24.277344 Z M 67.617188 24.261719 " fill-opacity="1" fill-rule="nonzero"/></g><g clip-path="url(#ed0a7802df)"><path fill="#3c3c3b" d="M 25.851562 23.867188 C 25.742188 23.871094 25.648438 23.839844 25.566406 23.765625 C 25.484375 23.691406 25.441406 23.601562 25.433594 23.488281 C 25.429688 23.378906 25.460938 23.285156 25.535156 23.203125 C 25.605469 23.121094 25.699219 23.074219 25.808594 23.070312 L 31.199219 22.464844 C 31.308594 22.453125 31.40625 22.480469 31.492188 22.550781 C 31.574219 22.617188 31.625 22.707031 31.636719 22.820312 C 31.648438 22.929688 31.621094 23.027344 31.550781 23.113281 C 31.484375 23.199219 31.394531 23.25 31.285156 23.261719 L 25.894531 23.867188 Z M 25.851562 23.867188 " fill-opacity="1" fill-rule="nonzero"/></g><path fill="#3c3c3b" d="M 32.226562 15.785156 C 32.175781 15.78125 32.125 15.773438 32.078125 15.757812 L 27.035156 13.765625 C 26.929688 13.730469 26.851562 13.660156 26.804688 13.558594 C 26.757812 13.453125 26.753906 13.351562 26.796875 13.246094 C 26.835938 13.140625 26.910156 13.066406 27.015625 13.023438 C 27.117188 12.980469 27.222656 12.980469 27.324219 13.027344 L 32.375 15.019531 C 32.585938 15.09375 32.671875 15.246094 32.628906 15.464844 C 32.589844 15.6875 32.457031 15.796875 32.234375 15.792969 Z M 32.226562 15.785156 " fill-opacity="1" fill-rule="nonzero"/><path fill="#3c3c3b" d="M 36.515625 9.617188 C 36.394531 9.617188 36.292969 9.570312 36.214844 9.480469 L 32.660156 5.351562 C 32.589844 5.265625 32.558594 5.167969 32.570312 5.058594 C 32.578125 4.949219 32.625 4.855469 32.710938 4.785156 C 32.792969 4.714844 32.890625 4.683594 33 4.695312 C 33.109375 4.703125 33.199219 4.75 33.269531 4.835938 L 36.824219 8.964844 C 36.894531 9.046875 36.925781 9.144531 36.917969 9.253906 C 36.910156 9.363281 36.867188 9.453125 36.78125 9.527344 C 36.707031 9.59375 36.617188 9.621094 36.515625 9.617188 Z M 36.515625 9.617188 " fill-opacity="1" fill-rule="nonzero"/><g clip-path="url(#35e074fb46)"><path fill="#3c3c3b" d="M 43.171875 6.175781 C 42.960938 6.179688 42.828125 6.078125 42.777344 5.867188 L 41.542969 0.542969 C 41.515625 0.433594 41.535156 0.332031 41.59375 0.234375 C 41.652344 0.140625 41.738281 0.078125 41.847656 0.0546875 C 41.957031 0.0273438 42.058594 0.046875 42.152344 0.105469 C 42.246094 0.164062 42.308594 0.25 42.332031 0.359375 L 43.582031 5.683594 C 43.605469 5.792969 43.589844 5.894531 43.53125 5.988281 C 43.472656 6.082031 43.390625 6.144531 43.285156 6.167969 C 43.246094 6.175781 43.210938 6.179688 43.171875 6.175781 Z M 43.171875 6.175781 " fill-opacity="1" fill-rule="nonzero"/></g><g clip-path="url(#27ec85827b)"><path fill="#3c3c3b" d="M 50.648438 6.253906 C 50.617188 6.257812 50.585938 6.257812 50.550781 6.253906 C 50.445312 6.226562 50.367188 6.167969 50.3125 6.074219 C 50.253906 5.980469 50.242188 5.878906 50.265625 5.773438 L 51.605469 0.453125 C 51.632812 0.34375 51.695312 0.265625 51.789062 0.207031 C 51.882812 0.152344 51.980469 0.136719 52.085938 0.164062 C 52.195312 0.191406 52.273438 0.253906 52.328125 0.347656 C 52.386719 0.445312 52.398438 0.542969 52.371094 0.652344 L 51.03125 5.953125 C 50.984375 6.152344 50.855469 6.253906 50.648438 6.253906 Z M 50.648438 6.253906 " fill-opacity="1" fill-rule="nonzero"/></g><path fill="#3c3c3b" d="M 57.226562 9.816406 C 57.054688 9.820312 56.933594 9.742188 56.863281 9.582031 C 56.792969 9.425781 56.816406 9.28125 56.929688 9.152344 L 60.566406 5.089844 C 60.640625 5.007812 60.734375 4.964844 60.84375 4.960938 C 60.953125 4.953125 61.050781 4.988281 61.128906 5.066406 C 61.210938 5.140625 61.253906 5.234375 61.261719 5.34375 C 61.265625 5.453125 61.230469 5.550781 61.15625 5.632812 L 57.519531 9.6875 C 57.441406 9.773438 57.34375 9.816406 57.226562 9.816406 Z M 57.226562 9.816406 " fill-opacity="1" fill-rule="nonzero"/><path fill="#3c3c3b" d="M 61.398438 16.0625 C 61.175781 16.0625 61.046875 15.953125 61.007812 15.734375 C 60.96875 15.515625 61.054688 15.367188 61.261719 15.289062 L 66.347656 13.398438 C 66.449219 13.367188 66.542969 13.378906 66.636719 13.425781 C 66.726562 13.472656 66.789062 13.546875 66.824219 13.644531 C 66.863281 13.738281 66.859375 13.835938 66.820312 13.933594 C 66.78125 14.027344 66.714844 14.097656 66.621094 14.140625 L 61.550781 16.039062 C 61.5 16.058594 61.449219 16.066406 61.398438 16.0625 Z M 61.398438 16.0625 " fill-opacity="1" fill-rule="nonzero"/><g clip-path="url(#4887cac802)"><path fill="#0369a1" d="M 52.308594 36.277344 C 52.308594 35.417969 52.511719 34.609375 52.910156 33.847656 C 53.3125 33.085938 53.863281 32.460938 54.570312 31.96875 C 55.476562 31.339844 56.285156 30.601562 56.996094 29.761719 C 57.710938 28.917969 58.300781 28 58.773438 27 C 59.242188 26.003906 59.578125 24.960938 59.773438 23.875 C 59.96875 22.789062 60.023438 21.699219 59.933594 20.597656 C 59.394531 14.347656 54.109375 9.34375 47.621094 8.914062 C 39.859375 8.394531 33.363281 14.308594 33.363281 21.675781 C 33.367188 22.691406 33.492188 23.691406 33.742188 24.679688 C 33.988281 25.664062 34.351562 26.609375 34.828125 27.507812 C 35.300781 28.40625 35.878906 29.234375 36.554688 29.996094 C 37.230469 30.753906 37.988281 31.425781 38.824219 32 C 39.519531 32.492188 40.0625 33.113281 40.453125 33.871094 C 40.84375 34.625 41.039062 35.425781 41.039062 36.277344 L 41.039062 38.039062 L 52.308594 38.039062 Z M 52.308594 36.277344 " fill-opacity="1" fill-rule="nonzero"/></g><path fill="#f1faff" d="M 57.320312 25.199219 C 57.242188 25.199219 57.160156 25.191406 57.082031 25.171875 C 56.839844 25.105469 56.652344 24.960938 56.527344 24.742188 C 56.402344 24.523438 56.371094 24.289062 56.4375 24.046875 C 56.484375 23.851562 56.535156 23.640625 56.570312 23.460938 C 56.621094 23.210938 56.75 23.015625 56.960938 22.875 C 57.171875 22.734375 57.398438 22.6875 57.648438 22.734375 C 57.898438 22.785156 58.09375 22.914062 58.234375 23.125 C 58.375 23.335938 58.421875 23.566406 58.375 23.8125 C 58.324219 24.054688 58.273438 24.285156 58.207031 24.519531 C 58.152344 24.722656 58.042969 24.882812 57.878906 25.011719 C 57.714844 25.136719 57.53125 25.199219 57.320312 25.199219 Z M 57.320312 25.199219 " fill-opacity="1" fill-rule="nonzero"/><path fill="#f1faff" d="M 49.476562 10.972656 C 51.832031 11.476562 53.851562 12.59375 55.527344 14.328125 C 56.367188 15.195312 57.042969 16.171875 57.558594 17.261719 C 58.074219 18.351562 58.402344 19.496094 58.539062 20.695312 C 58.566406 20.949219 58.503906 21.171875 58.34375 21.371094 C 58.183594 21.570312 57.976562 21.679688 57.726562 21.707031 C 57.472656 21.734375 57.25 21.671875 57.050781 21.511719 C 56.851562 21.351562 56.742188 21.148438 56.714844 20.894531 C 56.710938 20.875 56.710938 20.859375 56.714844 20.839844 C 56.582031 18.734375 55.824219 16.886719 54.433594 15.296875 C 53.03125 13.671875 51.289062 12.574219 49.214844 12.007812 C 49.082031 11.964844 48.980469 11.882812 48.914062 11.757812 C 48.84375 11.636719 48.824219 11.507812 48.855469 11.371094 C 48.890625 11.234375 48.964844 11.125 49.082031 11.046875 C 49.195312 10.96875 49.324219 10.941406 49.464844 10.960938 Z M 49.476562 10.972656 " fill-opacity="1" fill-rule="nonzero"/><path fill="#3c3c3b" d="M 41.039062 38.039062 L 41.039062 40.925781 C 41.042969 41.183594 41.097656 41.425781 41.199219 41.660156 C 41.300781 41.890625 41.445312 42.097656 41.628906 42.273438 C 41.808594 42.449219 42.019531 42.582031 42.257812 42.675781 C 42.496094 42.769531 42.742188 42.8125 42.996094 42.808594 L 50.347656 42.808594 C 50.605469 42.8125 50.847656 42.769531 51.085938 42.675781 C 51.324219 42.582031 51.535156 42.449219 51.71875 42.273438 C 51.898438 42.097656 52.042969 41.890625 52.144531 41.660156 C 52.246094 41.425781 52.300781 41.183594 52.308594 40.925781 L 52.308594 38.039062 Z M 41.039062 38.039062 " fill-opacity="1" fill-rule="nonzero"/><g clip-path="url(#87da8e55a3)"><path fill="#3c3c3b" d="M 42.703125 41.460938 C 42.710938 41.914062 42.808594 42.347656 42.988281 42.765625 C 43.171875 43.183594 43.425781 43.546875 43.753906 43.863281 C 44.082031 44.179688 44.457031 44.417969 44.882812 44.582031 C 45.304688 44.75 45.746094 44.828125 46.199219 44.816406 L 47.144531 44.816406 C 47.597656 44.828125 48.039062 44.75 48.460938 44.582031 C 48.882812 44.417969 49.257812 44.175781 49.585938 43.863281 C 49.914062 43.546875 50.167969 43.179688 50.351562 42.765625 C 50.53125 42.347656 50.628906 41.914062 50.636719 41.460938 Z M 42.703125 41.460938 " fill-opacity="1" fill-rule="nonzero"/></g><g clip-path="url(#16f89eba8b)"><path fill="#ffffff" d="M 54.753906 25.257812 C 54.707031 24.972656 54.628906 24.804688 54.636719 24.792969 C 56.5625 22.210938 53.835938 20.554688 53.835938 20.554688 C 54.171875 20.265625 54.394531 19.90625 54.5 19.480469 C 54.609375 19.050781 54.582031 18.628906 54.417969 18.21875 C 53.667969 16.269531 52.085938 16.886719 52.085938 16.886719 C 52.085938 16.886719 52.882812 14.839844 51.03125 13.558594 C 50.792969 13.390625 50.535156 13.25 50.261719 13.140625 C 50.070312 13.070312 49.871094 13.019531 49.667969 12.992188 C 49.464844 12.96875 49.257812 12.96875 49.054688 12.992188 C 48.851562 13.015625 48.652344 13.066406 48.457031 13.136719 C 48.265625 13.210938 48.085938 13.304688 47.914062 13.421875 C 47.746094 13.539062 47.59375 13.675781 47.457031 13.828125 C 47.320312 13.984375 47.203125 14.152344 47.105469 14.332031 C 47.011719 14.515625 46.9375 14.707031 46.886719 14.90625 C 46.839844 15.105469 46.8125 15.308594 46.8125 15.515625 C 46.816406 15.308594 46.789062 15.105469 46.742188 14.902344 C 46.691406 14.699219 46.621094 14.507812 46.523438 14.324219 C 46.425781 14.140625 46.308594 13.972656 46.171875 13.816406 C 46.035156 13.660156 45.878906 13.523438 45.710938 13.40625 C 45.539062 13.289062 45.355469 13.195312 45.160156 13.121094 C 44.964844 13.050781 44.765625 13 44.558594 12.976562 C 44.355469 12.953125 44.148438 12.957031 43.941406 12.984375 C 43.738281 13.011719 43.539062 13.0625 43.34375 13.136719 C 43.074219 13.246094 42.816406 13.386719 42.574219 13.554688 C 40.722656 14.835938 41.523438 16.882812 41.523438 16.882812 C 41.523438 16.882812 39.949219 16.261719 39.199219 18.21875 C 39.039062 18.628906 39.015625 19.050781 39.125 19.476562 C 39.234375 19.90625 39.457031 20.265625 39.792969 20.550781 C 39.792969 20.550781 37.066406 22.210938 38.992188 24.792969 C 38.992188 24.792969 38.925781 24.972656 38.871094 25.257812 C 38.855469 25.339844 38.84375 25.425781 38.839844 25.511719 C 38.800781 26.335938 39.039062 27.074219 39.550781 27.722656 C 40.269531 28.734375 41.691406 28.617188 41.691406 28.617188 C 41.691406 28.617188 41.691406 30.210938 43.035156 31.050781 C 43.132812 31.113281 43.234375 31.164062 43.339844 31.210938 C 44.988281 31.917969 46.8125 30.628906 46.8125 28.832031 C 46.8125 30.625 48.640625 31.90625 50.289062 31.210938 C 50.394531 31.164062 50.496094 31.113281 50.59375 31.050781 C 51.9375 30.210938 51.9375 28.617188 51.9375 28.617188 C 51.9375 28.617188 53.363281 28.734375 54.078125 27.722656 C 54.589844 27.074219 54.824219 26.335938 54.789062 25.511719 C 54.785156 25.425781 54.773438 25.339844 54.753906 25.257812 Z M 54.753906 25.257812 " fill-opacity="1" fill-rule="nonzero"/></g><g clip-path="url(#2250cafcbc)"><path fill="#3c3c3b" d="M 44.292969 31.6875 C 43.921875 31.6875 43.570312 31.613281 43.230469 31.46875 C 43.117188 31.417969 43.003906 31.355469 42.894531 31.289062 C 42.484375 31.023438 42.152344 30.675781 41.898438 30.257812 C 41.644531 29.839844 41.492188 29.386719 41.445312 28.898438 C 40.953125 28.878906 39.9375 28.738281 39.332031 27.875 C 38.605469 26.851562 38.390625 25.824219 38.699219 24.835938 C 38.140625 24.039062 37.929688 23.246094 38.085938 22.46875 C 38.277344 21.660156 38.703125 21.007812 39.363281 20.507812 C 39.074219 20.179688 38.886719 19.796875 38.8125 19.367188 C 38.734375 18.933594 38.777344 18.511719 38.9375 18.105469 C 39.144531 17.453125 39.554688 16.976562 40.167969 16.671875 C 40.484375 16.535156 40.8125 16.484375 41.15625 16.519531 C 41.015625 15.90625 41.066406 15.304688 41.300781 14.71875 C 41.53125 14.132812 41.910156 13.667969 42.433594 13.316406 C 42.6875 13.140625 42.957031 13 43.242188 12.882812 C 43.667969 12.707031 44.109375 12.644531 44.570312 12.691406 C 45.027344 12.738281 45.449219 12.894531 45.828125 13.15625 C 46.222656 13.421875 46.53125 13.761719 46.753906 14.179688 C 46.976562 14.597656 47.089844 15.042969 47.089844 15.515625 L 47.089844 28.832031 C 47.089844 29.3125 46.976562 29.765625 46.75 30.1875 C 46.523438 30.609375 46.207031 30.953125 45.808594 31.21875 C 45.351562 31.527344 44.84375 31.683594 44.292969 31.6875 Z M 41.691406 28.347656 C 41.765625 28.347656 41.832031 28.375 41.882812 28.429688 C 41.9375 28.484375 41.964844 28.546875 41.964844 28.621094 C 41.964844 28.621094 41.988281 30.078125 43.179688 30.824219 C 43.261719 30.875 43.347656 30.921875 43.4375 30.960938 C 43.773438 31.109375 44.121094 31.164062 44.484375 31.128906 C 44.847656 31.09375 45.183594 30.972656 45.484375 30.769531 C 45.8125 30.554688 46.066406 30.277344 46.25 29.933594 C 46.433594 29.59375 46.527344 29.226562 46.527344 28.835938 L 46.527344 15.519531 C 46.527344 15.136719 46.433594 14.777344 46.253906 14.441406 C 46.070312 14.101562 45.820312 13.828125 45.503906 13.617188 C 45.199219 13.40625 44.859375 13.28125 44.492188 13.242188 C 44.125 13.203125 43.769531 13.253906 43.425781 13.394531 C 43.183594 13.5 42.957031 13.625 42.742188 13.78125 C 41.101562 14.925781 41.757812 16.714844 41.789062 16.789062 C 41.832031 16.898438 41.808594 17 41.726562 17.082031 C 41.640625 17.167969 41.542969 17.1875 41.433594 17.144531 C 41.296875 17.09375 40.078125 16.6875 39.453125 18.308594 C 39.316406 18.667969 39.296875 19.03125 39.390625 19.402344 C 39.484375 19.773438 39.675781 20.082031 39.964844 20.332031 C 40.039062 20.394531 40.074219 20.472656 40.070312 20.566406 C 40.0625 20.660156 40.019531 20.730469 39.9375 20.78125 C 39.9375 20.78125 38.832031 21.472656 38.617188 22.574219 C 38.492188 23.226562 38.695312 23.914062 39.214844 24.621094 C 39.289062 24.734375 39.296875 24.847656 39.230469 24.96875 C 38.957031 25.8125 39.140625 26.691406 39.773438 27.578125 C 40.40625 28.46875 41.65625 28.359375 41.667969 28.347656 Z M 41.691406 28.347656 " fill-opacity="1" fill-rule="nonzero"/></g><path fill="#3c3c3b" d="M 43.699219 18.121094 C 42.761719 18.101562 41.972656 17.75 41.328125 17.070312 C 41.28125 17.011719 41.257812 16.949219 41.265625 16.875 C 41.269531 16.800781 41.300781 16.738281 41.355469 16.6875 C 41.410156 16.640625 41.476562 16.617188 41.550781 16.621094 C 41.625 16.625 41.6875 16.652344 41.738281 16.707031 C 42.308594 17.300781 43.003906 17.589844 43.828125 17.570312 C 44.253906 17.5625 44.585938 17.382812 44.824219 17.027344 C 44.863281 16.960938 44.921875 16.921875 44.996094 16.902344 C 45.074219 16.886719 45.144531 16.898438 45.210938 16.941406 C 45.273438 16.984375 45.3125 17.042969 45.328125 17.121094 C 45.34375 17.195312 45.328125 17.265625 45.28125 17.328125 C 44.949219 17.835938 44.476562 18.101562 43.867188 18.125 C 43.8125 18.121094 43.753906 18.121094 43.699219 18.121094 Z M 43.699219 18.121094 " fill-opacity="1" fill-rule="nonzero"/><path fill="#3c3c3b" d="M 41.691406 28.894531 C 41.523438 28.894531 41.429688 28.808594 41.417969 28.640625 C 41.410156 28.5625 41.433594 28.496094 41.484375 28.4375 C 41.535156 28.378906 41.597656 28.347656 41.675781 28.34375 C 41.75 28.34375 43.394531 28.144531 44.011719 25.699219 C 44.066406 25.535156 44.175781 25.472656 44.34375 25.515625 C 44.507812 25.558594 44.578125 25.667969 44.542969 25.835938 C 43.824219 28.671875 41.808594 28.882812 41.726562 28.886719 Z M 41.691406 28.894531 " fill-opacity="1" fill-rule="nonzero"/><path fill="#3c3c3b" d="M 38.839844 25.875 C 38.667969 25.878906 38.578125 25.792969 38.566406 25.621094 C 38.5625 25.273438 38.640625 24.945312 38.804688 24.640625 C 38.96875 24.332031 39.199219 24.085938 39.496094 23.902344 C 39.558594 23.859375 39.625 23.84375 39.699219 23.859375 C 39.773438 23.875 39.832031 23.910156 39.875 23.972656 C 39.917969 24.035156 39.933594 24.105469 39.917969 24.179688 C 39.90625 24.253906 39.867188 24.3125 39.804688 24.355469 C 39.347656 24.632812 39.117188 25.039062 39.113281 25.574219 C 39.121094 25.652344 39.097656 25.71875 39.046875 25.777344 C 38.996094 25.835938 38.933594 25.867188 38.859375 25.871094 Z M 38.839844 25.875 " fill-opacity="1" fill-rule="nonzero"/><path fill="#3c3c3b" d="M 46.804688 25.464844 C 46.730469 25.464844 46.667969 25.4375 46.613281 25.386719 C 46.558594 25.332031 46.53125 25.269531 46.53125 25.191406 C 46.53125 25.15625 46.511719 24.230469 45.695312 23.980469 C 45.609375 23.96875 45.542969 23.929688 45.496094 23.855469 C 45.445312 23.785156 45.4375 23.707031 45.460938 23.625 C 45.488281 23.542969 45.542969 23.484375 45.621094 23.453125 C 45.703125 23.421875 45.78125 23.425781 45.855469 23.46875 C 46.820312 23.765625 47.078125 24.730469 47.082031 25.199219 C 47.082031 25.277344 47.054688 25.339844 47 25.394531 C 46.945312 25.449219 46.882812 25.476562 46.804688 25.476562 Z M 46.804688 25.464844 " fill-opacity="1" fill-rule="nonzero"/><path fill="#3c3c3b" d="M 39.792969 20.824219 C 39.710938 20.824219 39.644531 20.796875 39.589844 20.738281 C 39.472656 20.605469 39.480469 20.480469 39.605469 20.359375 C 40.359375 19.746094 41.203125 19.316406 42.144531 19.078125 C 42.21875 19.058594 42.289062 19.066406 42.355469 19.101562 C 42.421875 19.140625 42.464844 19.195312 42.484375 19.265625 C 42.503906 19.339844 42.496094 19.410156 42.457031 19.476562 C 42.421875 19.542969 42.367188 19.585938 42.292969 19.605469 C 41.445312 19.824219 40.675781 20.203125 39.988281 20.746094 C 39.933594 20.804688 39.871094 20.828125 39.792969 20.824219 Z M 39.792969 20.824219 " fill-opacity="1" fill-rule="nonzero"/><path fill="#3c3c3b" d="M 42.605469 21.039062 C 42.519531 21.039062 42.449219 21.003906 42.394531 20.9375 C 42.175781 20.683594 41.90625 20.5 41.589844 20.386719 C 41.273438 20.277344 40.953125 20.25 40.621094 20.3125 C 40.546875 20.328125 40.480469 20.316406 40.414062 20.277344 C 40.351562 20.234375 40.3125 20.179688 40.292969 20.105469 C 40.277344 20.03125 40.289062 19.960938 40.332031 19.898438 C 40.371094 19.832031 40.429688 19.792969 40.5 19.777344 C 40.929688 19.695312 41.351562 19.726562 41.765625 19.871094 C 42.175781 20.019531 42.523438 20.257812 42.804688 20.59375 C 42.878906 20.683594 42.890625 20.78125 42.839844 20.882812 C 42.789062 20.988281 42.707031 21.039062 42.59375 21.039062 Z M 42.605469 21.039062 " fill-opacity="1" fill-rule="nonzero"/><path fill="#3c3c3b" d="M 43.679688 27.472656 C 43.566406 27.46875 43.484375 27.410156 43.441406 27.304688 C 43.394531 27.199219 43.410156 27.101562 43.488281 27.015625 C 43.988281 26.535156 44.582031 26.363281 45.261719 26.503906 C 45.425781 26.554688 45.488281 26.667969 45.445312 26.832031 C 45.402344 27 45.296875 27.066406 45.125 27.035156 C 44.644531 26.9375 44.226562 27.054688 43.867188 27.390625 C 43.816406 27.445312 43.753906 27.472656 43.679688 27.472656 Z M 43.679688 27.472656 " fill-opacity="1" fill-rule="nonzero"/><path fill="#3c3c3b" d="M 44.539062 19.078125 C 44.382812 19.078125 44.289062 19 44.269531 18.84375 C 44.242188 18.664062 44.164062 18.511719 44.035156 18.382812 C 43.910156 18.25 43.757812 18.171875 43.578125 18.140625 C 43.410156 18.101562 43.339844 17.996094 43.375 17.824219 C 43.40625 17.652344 43.507812 17.578125 43.683594 17.601562 C 43.976562 17.65625 44.226562 17.789062 44.433594 18.003906 C 44.640625 18.214844 44.765625 18.472656 44.8125 18.765625 C 44.824219 18.839844 44.804688 18.90625 44.761719 18.96875 C 44.714844 19.027344 44.65625 19.066406 44.582031 19.074219 Z M 44.539062 19.078125 " fill-opacity="1" fill-rule="nonzero"/><g clip-path="url(#66a47c3b3a)"><path fill="#3c3c3b" d="M 49.335938 31.6875 C 48.789062 31.683594 48.285156 31.53125 47.832031 31.222656 C 47.429688 30.960938 47.117188 30.613281 46.890625 30.191406 C 46.664062 29.769531 46.550781 29.316406 46.550781 28.835938 L 46.550781 15.519531 C 46.550781 15.046875 46.660156 14.601562 46.886719 14.183594 C 47.109375 13.765625 47.417969 13.425781 47.808594 13.164062 C 48.1875 12.902344 48.605469 12.746094 49.0625 12.695312 C 49.523438 12.648438 49.964844 12.710938 50.390625 12.882812 C 50.675781 13.003906 50.945312 13.152344 51.199219 13.328125 C 51.722656 13.679688 52.101562 14.148438 52.332031 14.734375 C 52.566406 15.316406 52.617188 15.917969 52.480469 16.53125 C 52.820312 16.496094 53.148438 16.546875 53.460938 16.683594 C 54.066406 16.992188 54.472656 17.46875 54.675781 18.117188 C 54.835938 18.527344 54.878906 18.945312 54.804688 19.378906 C 54.726562 19.8125 54.542969 20.191406 54.25 20.519531 C 54.910156 21.019531 55.339844 21.675781 55.53125 22.480469 C 55.683594 23.25 55.476562 24.054688 54.917969 24.847656 C 55.222656 25.847656 55.007812 26.867188 54.28125 27.886719 C 53.675781 28.738281 52.660156 28.878906 52.171875 28.910156 C 52.121094 29.398438 51.96875 29.851562 51.714844 30.269531 C 51.460938 30.691406 51.128906 31.035156 50.71875 31.304688 C 50.609375 31.371094 50.496094 31.429688 50.378906 31.480469 C 50.046875 31.617188 49.699219 31.6875 49.335938 31.6875 Z M 49.335938 13.222656 C 48.882812 13.226562 48.46875 13.355469 48.09375 13.609375 C 47.777344 13.824219 47.527344 14.097656 47.34375 14.433594 C 47.164062 14.773438 47.070312 15.132812 47.070312 15.515625 L 47.070312 28.832031 C 47.070312 29.222656 47.164062 29.585938 47.347656 29.929688 C 47.535156 30.273438 47.789062 30.550781 48.113281 30.761719 C 48.417969 30.96875 48.75 31.089844 49.113281 31.121094 C 49.476562 31.15625 49.828125 31.101562 50.164062 30.957031 C 50.253906 30.917969 50.335938 30.871094 50.417969 30.820312 C 51.613281 30.074219 51.636719 28.628906 51.636719 28.617188 C 51.636719 28.535156 51.664062 28.46875 51.722656 28.414062 C 51.78125 28.363281 51.851562 28.335938 51.929688 28.34375 C 51.929688 28.34375 53.210938 28.433594 53.828125 27.574219 C 54.445312 26.71875 54.675781 25.800781 54.398438 24.96875 C 54.335938 24.851562 54.34375 24.738281 54.417969 24.628906 C 54.933594 23.929688 55.140625 23.246094 55.015625 22.582031 C 54.800781 21.46875 53.707031 20.789062 53.695312 20.789062 C 53.613281 20.738281 53.570312 20.667969 53.566406 20.570312 C 53.558594 20.476562 53.59375 20.398438 53.667969 20.339844 C 53.960938 20.09375 54.152344 19.78125 54.246094 19.410156 C 54.34375 19.039062 54.320312 18.675781 54.179688 18.316406 C 53.550781 16.691406 52.332031 17.097656 52.195312 17.148438 C 52.085938 17.1875 51.988281 17.167969 51.90625 17.082031 C 51.816406 17 51.792969 16.902344 51.84375 16.789062 C 51.871094 16.714844 52.535156 14.925781 50.886719 13.78125 C 50.667969 13.625 50.433594 13.496094 50.183594 13.394531 C 49.917969 13.28125 49.636719 13.226562 49.347656 13.222656 Z M 49.335938 13.222656 " fill-opacity="1" fill-rule="nonzero"/></g><path fill="#3c3c3b" d="M 49.933594 18.121094 C 49.875 18.121094 49.816406 18.121094 49.757812 18.121094 C 49.152344 18.097656 48.683594 17.832031 48.347656 17.328125 C 48.269531 17.179688 48.300781 17.058594 48.441406 16.964844 C 48.582031 16.875 48.703125 16.894531 48.804688 17.027344 C 49.046875 17.386719 49.378906 17.566406 49.808594 17.570312 C 50.632812 17.589844 51.332031 17.300781 51.898438 16.707031 C 51.949219 16.648438 52.011719 16.613281 52.089844 16.609375 C 52.167969 16.605469 52.234375 16.625 52.292969 16.679688 C 52.347656 16.730469 52.378906 16.792969 52.382812 16.871094 C 52.386719 16.945312 52.363281 17.015625 52.308594 17.070312 C 51.664062 17.75 50.871094 18.101562 49.933594 18.121094 Z M 49.933594 18.121094 " fill-opacity="1" fill-rule="nonzero"/><path fill="#3c3c3b" d="M 51.9375 28.894531 L 51.914062 28.894531 C 51.828125 28.894531 49.816406 28.679688 49.097656 25.84375 C 49.078125 25.769531 49.085938 25.699219 49.125 25.636719 C 49.164062 25.570312 49.222656 25.527344 49.292969 25.507812 C 49.367188 25.492188 49.4375 25.5 49.503906 25.539062 C 49.566406 25.578125 49.609375 25.632812 49.628906 25.707031 C 50.25 28.152344 51.894531 28.34375 51.964844 28.351562 C 52.132812 28.375 52.210938 28.46875 52.203125 28.636719 C 52.195312 28.804688 52.109375 28.890625 51.941406 28.898438 Z M 51.9375 28.894531 " fill-opacity="1" fill-rule="nonzero"/><path fill="#3c3c3b" d="M 54.789062 25.875 L 54.765625 25.875 C 54.691406 25.871094 54.625 25.839844 54.578125 25.78125 C 54.527344 25.726562 54.503906 25.660156 54.507812 25.582031 C 54.503906 25.046875 54.277344 24.640625 53.820312 24.359375 C 53.757812 24.320312 53.71875 24.261719 53.703125 24.1875 C 53.691406 24.113281 53.703125 24.042969 53.746094 23.980469 C 53.789062 23.917969 53.847656 23.878906 53.921875 23.867188 C 53.996094 23.851562 54.066406 23.867188 54.128906 23.90625 C 54.421875 24.09375 54.652344 24.339844 54.816406 24.644531 C 54.984375 24.949219 55.0625 25.277344 55.058594 25.625 C 55.042969 25.789062 54.953125 25.871094 54.789062 25.875 Z M 54.789062 25.875 " fill-opacity="1" fill-rule="nonzero"/><path fill="#3c3c3b" d="M 46.820312 25.464844 C 46.746094 25.464844 46.679688 25.4375 46.628906 25.382812 C 46.574219 25.332031 46.546875 25.265625 46.546875 25.191406 C 46.546875 24.722656 46.804688 23.753906 47.773438 23.457031 C 47.921875 23.441406 48.019531 23.503906 48.0625 23.648438 C 48.109375 23.789062 48.066406 23.898438 47.9375 23.96875 C 47.117188 24.226562 47.097656 25.144531 47.097656 25.183594 C 47.097656 25.261719 47.074219 25.328125 47.019531 25.382812 C 46.964844 25.4375 46.898438 25.464844 46.820312 25.464844 Z M 46.820312 25.464844 " fill-opacity="1" fill-rule="nonzero"/><path fill="#3c3c3b" d="M 53.835938 20.824219 C 53.765625 20.824219 53.703125 20.800781 53.652344 20.753906 C 52.964844 20.210938 52.195312 19.828125 51.347656 19.609375 C 51.273438 19.589844 51.21875 19.550781 51.179688 19.484375 C 51.140625 19.417969 51.128906 19.351562 51.148438 19.277344 C 51.167969 19.203125 51.210938 19.148438 51.273438 19.109375 C 51.339844 19.070312 51.410156 19.058594 51.484375 19.078125 C 52.421875 19.316406 53.269531 19.746094 54.023438 20.359375 C 54.078125 20.410156 54.109375 20.472656 54.109375 20.546875 C 54.113281 20.625 54.089844 20.6875 54.039062 20.746094 C 53.980469 20.800781 53.914062 20.828125 53.835938 20.824219 Z M 53.835938 20.824219 " fill-opacity="1" fill-rule="nonzero"/><path fill="#3c3c3b" d="M 51.023438 21.039062 C 50.957031 21.039062 50.898438 21.019531 50.851562 20.976562 C 50.792969 20.929688 50.757812 20.871094 50.75 20.792969 C 50.742188 20.71875 50.761719 20.652344 50.808594 20.59375 C 51.09375 20.253906 51.445312 20.011719 51.863281 19.867188 C 52.28125 19.71875 52.707031 19.691406 53.140625 19.777344 C 53.214844 19.792969 53.269531 19.832031 53.3125 19.898438 C 53.351562 19.960938 53.363281 20.03125 53.347656 20.101562 C 53.332031 20.175781 53.292969 20.234375 53.226562 20.277344 C 53.164062 20.316406 53.09375 20.328125 53.023438 20.3125 C 52.691406 20.25 52.367188 20.273438 52.050781 20.386719 C 51.734375 20.496094 51.46875 20.679688 51.25 20.9375 C 51.191406 21.007812 51.113281 21.042969 51.023438 21.039062 Z M 51.023438 21.039062 " fill-opacity="1" fill-rule="nonzero"/><path fill="#3c3c3b" d="M 49.949219 27.472656 C 49.875 27.472656 49.8125 27.445312 49.757812 27.394531 C 49.402344 27.0625 48.980469 26.945312 48.5 27.039062 C 48.429688 27.058594 48.359375 27.046875 48.292969 27.007812 C 48.226562 26.96875 48.1875 26.914062 48.167969 26.839844 C 48.148438 26.765625 48.160156 26.695312 48.199219 26.628906 C 48.238281 26.5625 48.292969 26.523438 48.367188 26.503906 C 49.050781 26.367188 49.640625 26.535156 50.144531 27.015625 C 50.195312 27.070312 50.222656 27.132812 50.222656 27.210938 C 50.222656 27.285156 50.195312 27.351562 50.144531 27.402344 C 50.089844 27.453125 50.023438 27.472656 49.949219 27.472656 Z M 49.949219 27.472656 " fill-opacity="1" fill-rule="nonzero"/><path fill="#3c3c3b" d="M 49.089844 19.078125 L 49.042969 19.078125 C 48.96875 19.066406 48.90625 19.03125 48.859375 18.972656 C 48.816406 18.910156 48.796875 18.84375 48.808594 18.769531 C 48.855469 18.472656 48.980469 18.21875 49.1875 18.003906 C 49.398438 17.792969 49.648438 17.660156 49.941406 17.605469 C 50.015625 17.585938 50.085938 17.597656 50.152344 17.640625 C 50.21875 17.683594 50.257812 17.742188 50.273438 17.820312 C 50.289062 17.898438 50.273438 17.96875 50.226562 18.03125 C 50.183594 18.09375 50.121094 18.132812 50.042969 18.144531 C 49.863281 18.175781 49.710938 18.253906 49.585938 18.382812 C 49.457031 18.511719 49.378906 18.664062 49.351562 18.84375 C 49.328125 18.996094 49.242188 19.074219 49.089844 19.078125 Z M 49.089844 19.078125 " fill-opacity="1" fill-rule="nonzero"/><g fill="#3c3c3b" fill-opacity="1"><g transform="translate(72.863776, 18.830232)"><g><path d="M 5.035156 0.214844 C 7.582031 0.214844 9.144531 -0.996094 9.144531 -3.023438 C 9.144531 -4.726562 8.027344 -5.738281 5.355469 -6.367188 C 3.714844 -6.75 3.144531 -7.167969 3.144531 -7.824219 C 3.144531 -8.53125 3.773438 -8.960938 4.804688 -8.960938 C 5.921875 -8.960938 6.597656 -8.378906 6.597656 -7.410156 L 8.945312 -7.410156 C 8.945312 -9.574219 7.320312 -10.957031 4.773438 -10.957031 C 2.300781 -10.957031 0.765625 -9.746094 0.765625 -7.78125 C 0.765625 -6.03125 1.949219 -4.988281 4.464844 -4.449219 C 5.984375 -4.128906 6.675781 -3.683594 6.675781 -2.929688 C 6.675781 -2.210938 6.03125 -1.796875 5.019531 -1.796875 C 3.835938 -1.796875 3.070312 -2.394531 3.070312 -3.421875 L 0.675781 -3.421875 C 0.675781 -1.195312 2.332031 0.214844 5.035156 0.214844 Z M 5.035156 0.214844 "/></g></g></g><g fill="#3c3c3b" fill-opacity="1"><g transform="translate(83.830833, 18.830232)"><g><path d="M 7.933594 0 L 10.375 0 L 10.375 -10.742188 L 7.933594 -10.742188 L 7.933594 -6.613281 L 3.730469 -6.613281 L 3.730469 -10.742188 L 1.289062 -10.742188 L 1.289062 0 L 3.730469 0 L 3.730469 -4.328125 L 7.933594 -4.328125 Z M 7.933594 0 "/></g></g></g><g fill="#3c3c3b" fill-opacity="1"><g transform="translate(96.623067, 18.830232)"><g><path d="M 1.289062 0 L 3.730469 0 L 3.730469 -10.742188 L 1.289062 -10.742188 Z M 1.289062 0 "/></g></g></g><g fill="#3c3c3b" fill-opacity="1"><g transform="translate(102.774108, 18.830232)"><g><path d="M 1.289062 0 L 3.730469 0 L 3.730469 -4.34375 L 5.019531 -4.34375 C 5.21875 -4.34375 5.386719 -4.34375 5.570312 -4.359375 L 7.871094 0 L 10.710938 0 L 7.8125 -5.261719 C 8.242188 -5.675781 8.5625 -6.214844 8.839844 -6.921875 L 10.328125 -10.742188 L 7.6875 -10.742188 L 6.675781 -7.949219 C 6.308594 -6.9375 5.863281 -6.613281 4.648438 -6.613281 L 3.730469 -6.613281 L 3.730469 -10.742188 L 1.289062 -10.742188 Z M 1.289062 0 "/></g></g></g><g fill="#3c3c3b" fill-opacity="1"><g transform="translate(115.060195, 18.830232)"><g><path d="M 1.289062 0 L 3.730469 0 L 3.730469 -4.34375 L 5.019531 -4.34375 C 5.21875 -4.34375 5.386719 -4.34375 5.570312 -4.359375 L 7.871094 0 L 10.710938 0 L 7.8125 -5.261719 C 8.242188 -5.675781 8.5625 -6.214844 8.839844 -6.921875 L 10.328125 -10.742188 L 7.6875 -10.742188 L 6.675781 -7.949219 C 6.308594 -6.9375 5.863281 -6.613281 4.648438 -6.613281 L 3.730469 -6.613281 L 3.730469 -10.742188 L 1.289062 -10.742188 Z M 1.289062 0 "/></g></g></g><g fill="#3c3c3b" fill-opacity="1"><g transform="translate(127.346285, 18.830232)"><g><path d="M 7.933594 0 L 10.375 0 L 10.375 -10.742188 L 7.933594 -10.742188 L 7.933594 -6.613281 L 3.730469 -6.613281 L 3.730469 -10.742188 L 1.289062 -10.742188 L 1.289062 0 L 3.730469 0 L 3.730469 -4.328125 L 7.933594 -4.328125 Z M 7.933594 0 "/></g></g></g><g fill="#3c3c3b" fill-opacity="1"><g transform="translate(140.138521, 18.830232)"><g><path d="M 0.136719 0 L 2.746094 0 L 3.46875 -1.855469 L 7.734375 -1.855469 L 8.457031 0 L 11.0625 0 L 6.796875 -10.742188 L 4.402344 -10.742188 Z M 4.097656 -3.773438 L 5.601562 -7.703125 L 7.121094 -3.773438 Z M 4.097656 -3.773438 "/></g></g></g><g fill="#3c3c3b" fill-opacity="1"><g transform="translate(152.470625, 18.830232)"><g><path d="M 1.289062 0 L 3.730469 0 L 3.730469 -3.34375 L 5.339844 -3.34375 L 7.257812 0 L 10.082031 0 L 7.855469 -3.730469 C 9.144531 -4.296875 9.898438 -5.460938 9.898438 -7.042969 C 9.898438 -9.328125 8.332031 -10.742188 5.878906 -10.742188 L 1.289062 -10.742188 Z M 3.699219 -5.402344 L 3.699219 -8.65625 L 5.554688 -8.65625 C 6.75 -8.65625 7.425781 -8.070312 7.425781 -7.027344 C 7.425781 -5.984375 6.75 -5.402344 5.554688 -5.402344 Z M 3.699219 -5.402344 "/></g></g></g><g fill="#3c3c3b" fill-opacity="1"><g transform="translate(72.863776, 39.968617)"><g><path d="M 0.136719 0 L 2.746094 0 L 3.46875 -1.855469 L 7.734375 -1.855469 L 8.457031 0 L 11.0625 0 L 6.796875 -10.742188 L 4.402344 -10.742188 Z M 4.097656 -3.773438 L 5.601562 -7.703125 L 7.121094 -3.773438 Z M 4.097656 -3.773438 "/></g></g></g><g fill="#3c3c3b" fill-opacity="1"><g transform="translate(85.195878, 39.968617)"><g><path d="M 1.289062 0 L 8.425781 0 L 8.425781 -2.285156 L 3.730469 -2.285156 L 3.730469 -10.742188 L 1.289062 -10.742188 Z M 1.289062 0 "/></g></g></g><g fill="#3c3c3b" fill-opacity="1"><g transform="translate(95.165985, 39.968617)"><g><path d="M 6.382812 0.214844 C 9.746094 0.214844 12.121094 -2.085938 12.121094 -5.371094 C 12.121094 -8.65625 9.746094 -10.957031 6.382812 -10.957031 C 3.023438 -10.957031 0.660156 -8.65625 0.660156 -5.371094 C 0.660156 -2.085938 3.023438 0.214844 6.382812 0.214844 Z M 3.144531 -5.371094 C 3.144531 -7.304688 4.480469 -8.640625 6.382812 -8.640625 C 8.300781 -8.640625 9.621094 -7.304688 9.621094 -5.371094 C 9.621094 -3.4375 8.300781 -2.101562 6.382812 -2.101562 C 4.480469 -2.101562 3.144531 -3.4375 3.144531 -5.371094 Z M 3.144531 -5.371094 "/></g></g></g></svg>